# xmcd
#
# Track frame offsets:
#	150
#	12676
#	24249
#	37383
#	50855
#	63752
#	76664
#	91224
#	107163
#	119405
#	134101
#	146486
#	158346
#	170229
#	184168
#	198073
#
# Disc length: 2808 seconds
#
# Revision: 2
# Processed by: cddbd v1.5.2PL0 Copyright (c) Steve Scherf et al.
# Submitted via: audiograbber 1.83.01
#
DISCID=de0af610
DTITLE=Django Reinhardt - Swing 48 [CD 1)
DYEAR=0
DGENRE=Swing
TTITLE0=Minor Blues (Blues d'autrefois)
TTITLE1=Peche à la mouche
TTITLE2=For sentimental Reason
TTITLE3=Danse Norvegienne
TTITLE4=Blues for Barclay
TTITLE5=Folie à Amphion
TTITLE6=Vette
TTITLE7=Anniversary Song
TTITLE8=Swing 48
TTITLE9=September Song (1st Version)
TTITLE10=Brasil (1st Version)
TTITLE11=I'll never smile again
TTITLE12=New York City
TTITLE13=Django's Blues
TTITLE14=Love's Mood
TTITLE15=I Love you
EXTD=
EXTT0=
EXTT1=
EXTT2=
EXTT3=
EXTT4=
EXTT5=
EXTT6=
EXTT7=
EXTT8=
EXTT9=
EXTT10=
EXTT11=
EXTT12=
EXTT13=
EXTT14=
EXTT15=
PLAYORDER=
